<svg width="1920" height="21" viewBox="0 0 1920 21" fill="none" xmlns="http://www.w3.org/2000/svg">
<g clip-path="url(#clip0_612_2201)">
<path d="M0 20.05H1920V0.2C1904.91 0.7 1895.69 2.08 1886.46 3.47C1874.88 5.2 1863.3 6.93 1840.15 6.93C1816.99 6.93 1805.42 5.2 1793.84 3.47C1782.26 1.73 1770.68 0 1747.53 0C1724.37 0 1712.8 1.73 1701.22 3.47C1689.64 5.2 1678.06 6.93 1654.91 6.93C1631.75 6.93 1620.18 5.2 1608.6 3.47C1597.02 1.73 1585.44 0 1562.29 0C1539.13 0 1527.56 1.73 1515.98 3.47C1504.4 5.2 1492.82 6.93 1469.67 6.93C1446.51 6.93 1434.94 5.2 1423.36 3.47C1411.78 1.74 1400.2 0 1377.05 0C1353.89 0 1342.32 1.73 1330.74 3.47C1319.16 5.21 1307.58 6.93 1284.43 6.93C1261.27 6.93 1249.7 5.2 1238.12 3.47C1226.54 1.74 1214.96 0 1191.81 0C1168.65 0 1157.08 1.73 1145.5 3.47C1133.92 5.21 1122.34 6.93 1099.19 6.93C1076.03 6.93 1064.46 5.2 1052.88 3.47C1041.3 1.74 1029.72 0 1006.57 0C983.41 0 971.84 1.73 960.26 3.47C948.68 5.2 937.1 6.93 913.95 6.93C890.79 6.93 879.22 5.2 867.64 3.47C856.06 1.73 844.48 0 821.33 0C798.18 0 786.61 1.73 775.03 3.46C763.45 5.19 751.87 6.93 728.72 6.93C705.57 6.93 693.99 5.2 682.41 3.47C670.83 1.73 659.26 0 636.1 0C612.95 0 601.37 1.73 589.79 3.47C578.21 5.2 566.64 6.93 543.48 6.93C520.33 6.93 508.75 5.2 497.17 3.47C485.59 1.73 474.02 0 450.86 0C427.71 0 416.13 1.73 404.55 3.47C392.97 5.2 381.4 6.93 358.24 6.93C335.09 6.93 323.51 5.2 311.93 3.47C300.35 1.73 288.78 0 265.62 0C242.47 0 230.89 1.73 219.31 3.47C207.73 5.2 196.16 6.93 173 6.93C149.85 6.93 138.27 5.2 126.69 3.47C115.11 1.73 103.54 0 80.38 0C57.23 0 45.65 1.73 34.07 3.47C24.74 4.86 15.4 6.26 0 6.75" fill="white"/>
</g>
<defs>
<clipPath id="clip0_612_2201">
<rect width="1920" height="20.05" fill="white"/>
</clipPath>
</defs>
</svg>
