<svg width="1920" height="9" viewBox="0 0 1920 9" fill="none" xmlns="http://www.w3.org/2000/svg">
<path d="M1920 1.18251C1904.24 1.67128 1894.68 3.06781 1885.13 4.46434C1873.28 6.1965 1861.43 7.92867 1837.74 7.92867C1814.04 7.92867 1802.19 6.1965 1790.34 4.46434C1778.49 2.73217 1766.64 1 1742.94 1C1719.25 1 1707.4 2.73217 1695.55 4.46434C1683.7 6.1965 1671.85 7.92867 1648.15 7.92867C1624.46 7.92867 1612.61 6.1965 1600.76 4.46434C1588.91 2.73217 1577.06 1 1553.36 1C1529.67 1 1517.82 2.73217 1505.97 4.46434C1494.12 6.1965 1482.27 7.92867 1458.57 7.92867C1434.88 7.92867 1423.03 6.1965 1411.18 4.46434C1399.33 2.73217 1387.48 1 1363.78 1C1340.08 1 1328.24 2.73217 1316.39 4.46434C1304.54 6.1965 1292.69 7.92867 1268.99 7.92867C1245.29 7.92867 1233.44 6.1965 1221.6 4.46434C1209.75 2.73217 1197.9 1 1174.2 1C1150.5 1 1138.65 2.73236 1126.8 4.46462C1114.96 6.19669 1103.11 7.92867 1079.42 7.92867C1055.72 7.92867 1043.87 6.1965 1032.02 4.46434C1020.18 2.73217 1008.33 1 984.629 1C960.931 1 949.083 2.73217 937.234 4.46434C925.385 6.1965 913.536 7.92867 889.838 7.92867C866.141 7.92867 854.292 6.1965 842.443 4.46434C830.594 2.73217 818.745 1 795.047 1C771.35 1 759.501 2.73217 747.652 4.46434C735.803 6.1965 723.954 7.92867 700.257 7.92867C676.559 7.92867 664.71 6.1965 652.861 4.46434C641.013 2.73217 629.164 1 605.466 1C581.768 1 569.919 2.73217 558.071 4.46434C546.222 6.1965 534.373 7.92867 510.675 7.92867C486.978 7.92867 475.129 6.1965 463.28 4.46433C451.431 2.73217 439.582 1 415.884 1C392.187 1 380.338 2.73217 368.489 4.46434C356.64 6.1965 344.791 7.92867 321.094 7.92867C297.396 7.92867 285.547 6.1965 273.698 4.46434C261.849 2.73217 250.001 1 226.303 1C202.605 1 190.756 2.73217 178.908 4.46434C167.059 6.1965 155.21 7.92867 131.512 7.92867C107.814 7.92867 95.9656 6.1965 84.1167 4.46434C72.2679 2.73217 60.419 1 36.7214 1C19.943 1 9.10438 1.86831 0 2.99015" stroke="#00BBAE"/>
</svg>
